<?xml version="1.0" encoding="UTF-8"?>
<svg version="1.1" xmlns="http://www.w3.org/2000/svg" width="1474" height="1067">
<path d="M0 0 C486.42 0 972.84 0 1474 0 C1474 352.11 1474 704.22 1474 1067 C987.58 1067 501.16 1067 0 1067 C0 714.89 0 362.78 0 0 Z " fill="#FDFDFD" transform="translate(0,0)"/>
<path d="M0 0 C-1.12319055 1.92834504 -2.24673817 3.85648211 -3.37043762 5.78453064 C-4.30889385 7.39516089 -4.30889385 7.39516089 -5.26630878 9.03832912 C-7.06533644 12.11161448 -8.89527916 15.15874547 -10.76171875 18.19140625 C-11.39916016 19.2278125 -12.03660156 20.26421875 -12.69335938 21.33203125 C-13.35142578 22.39808594 -14.00949219 23.46414062 -14.6875 24.5625 C-15.20848267 25.40796387 -15.20848267 25.40796387 -15.73999023 26.27050781 C-20.58307925 34.12989697 -25.47840805 41.95436615 -30.42724609 49.74755859 C-35.31652354 57.46342401 -40.08901046 65.2501796 -44.8671875 73.03515625 C-49.37750686 80.37833275 -53.92344653 87.69794063 -58.5 95 C-63.7068803 103.30893904 -68.86918086 111.64388181 -74 120 C-79.81209212 129.46500435 -85.67087803 138.89926576 -91.56640625 148.3125 C-95.56373663 154.69642214 -99.54081905 161.09235425 -103.5 167.5 C-108.77586651 176.0376655 -114.08998065 184.55092827 -119.4140625 193.05859375 C-123.4606164 199.52808425 -127.48854142 206.00869699 -131.5 212.5 C-137.99417242 223.00692096 -144.54042554 233.48094801 -151.09277344 243.95166016 C-154.23041565 248.96658599 -157.36503466 253.98340054 -160.5 259 C-161.42462036 260.47919922 -161.42462036 260.47919922 -162.36791992 261.98828125 C-165.53184607 267.0499023 -168.6946403 272.11222513 -171.85546875 277.17578125 C-173.13272741 279.2214073 -174.41007065 281.26698054 -175.6875 283.3125 C-176.31470947 284.31684082 -176.94191895 285.32118164 -177.58813477 286.35595703 C-181.35053693 292.37560348 -185.13591678 298.38004664 -188.9375 304.375 C-194.32436919 312.87606737 -199.59550812 321.44665665 -204.86035156 330.02368164 C-210.05400365 338.47911023 -215.29851679 346.90149248 -220.56567383 355.3112793 C-224.5632067 361.69563487 -228.54050528 368.09199016 -232.5 374.5 C-238.99410706 385.006961 -245.54042583 395.48094848 -252.09277344 405.95166016 C-255.23041563 410.96658596 -258.36507133 415.98337765 -261.5 421 C-262.74998537 423.00000915 -263.99998537 425.00000914 -265.25 427 C-265.86875 427.99 -266.4875 428.98 -267.125 430 C-287.75 463 -287.75 463 -289.62475586 465.99951172 C-290.87568669 468.00106619 -292.12650035 470.00269389 -293.37719727 472.00439453 C-296.48700269 476.98121596 -299.59878331 481.95677968 -302.71484375 486.9296875 C-309.18541998 497.26085963 -315.62013061 507.61253134 -322 518 C-332.03409302 534.3360152 -342.19822738 550.58919509 -352.44897461 566.79003906 C-358.35992918 576.1383262 -364.21127692 585.52385286 -370.06787109 594.90625 C-371.98762772 597.98018935 -373.90946258 601.05281876 -375.83203125 604.125 C-382.27809356 614.42694497 -388.70511872 624.74000822 -395.09301758 635.078125 C-399.14351362 641.62885883 -403.2243695 648.16020156 -407.3125 654.6875 C-412.64572222 663.20393093 -417.93085854 671.74860456 -423.1875 680.3125 C-428.20866635 688.49222909 -433.27627985 696.63803245 -438.42260742 704.73950195 C-442.67818039 711.45442269 -446.84219604 718.22421091 -451 725 C-456.11327062 733.33108916 -461.26380625 741.634777 -466.4987793 749.88989258 C-470.46182322 756.14015238 -474.39236308 762.41024543 -478.3125 768.6875 C-479.25814819 770.20174561 -479.25814819 770.20174561 -480.22290039 771.74658203 C-481.5076015 773.80412772 -482.79218745 775.86174532 -484.07666016 777.91943359 C-486.59352818 781.95063958 -489.11231795 785.98064261 -491.63134766 790.01049805 C-492.87989584 792.00794677 -494.12826747 794.00550587 -495.37646484 796.00317383 C-498.48648555 800.98042023 -501.59853138 805.95637763 -504.71484375 810.9296875 C-511.20998816 821.30043009 -517.66451251 831.6940009 -524.0625 842.125 C-529.59860452 851.14826171 -535.22090065 860.11001881 -540.92431641 869.02832031 C-545.36072803 875.9725982 -549.7164738 882.96357663 -554.04248047 889.97705078 C-558.10615423 896.56384869 -562.20353361 903.12887523 -566.3125 909.6875 C-572.33005643 919.29640524 -578.28058093 928.94512744 -584.20996094 938.60864258 C-588.72109457 945.95060688 -593.28340796 953.25737231 -597.93237305 960.51293945 C-598.368479 961.19702881 -598.80458496 961.88111816 -599.25390625 962.5859375 C-599.67505207 963.22947679 -600.09619789 963.87301608 -600.53010571 964.53605656 C-602.08529917 967.03514865 -602.08529917 967.03514865 -603.34912005 970.00414999 C-607.32692305 978.31389508 -607.32692305 978.31389508 -611.70572572 980.10957941 C-615.12321129 980.53364066 -618.36561299 980.5663538 -621.80862331 980.47657394 C-623.10830609 980.49042008 -624.40798887 980.50426621 -625.74705598 980.51853192 C-629.36094183 980.55534169 -632.97077357 980.51730198 -636.58435681 980.46719432 C-640.51257409 980.42596103 -644.44038238 980.45443672 -648.36868101 980.47412419 C-655.25512627 980.49901173 -662.14032773 980.47928413 -669.02662849 980.4304657 C-679.26604518 980.35807784 -689.50467675 980.35443252 -699.74430267 980.36496956 C-716.96810319 980.38074177 -734.19135157 980.34062002 -751.41499138 980.26876068 C-768.47114733 980.19778233 -785.52707337 980.15157471 -802.58337593 980.13852692 C-803.64345004 980.13770204 -804.70352415 980.13687717 -805.79572172 980.13602729 C-811.17919316 980.13196736 -816.5626648 980.12835073 -821.94613666 980.12490478 C-860.08802699 980.09969257 -898.22961685 980.01882429 -936.37133789 979.90527344 C-973.42796225 979.79508024 -1010.48450442 979.7100672 -1047.54125977 979.65917969 C-1048.68329186 979.65760137 -1049.82532394 979.65602306 -1051.00196307 979.65439692 C-1062.47060606 979.63857483 -1073.93924969 979.62326503 -1085.40789388 979.60833061 C-1108.77132838 979.57789516 -1132.13475752 979.54404014 -1155.4981842 979.50811768 C-1156.5724222 979.5064702 -1157.6466602 979.50482272 -1158.75345086 979.50312531 C-1230.50242554 979.39269719 -1302.25123356 979.20255241 -1374 979 C-1372.80493669 975.31120505 -1371.64101069 972.08093945 -1369.55859375 968.8046875 C-1369.06617188 968.0209375 -1368.57375 967.2371875 -1368.06640625 966.4296875 C-1367.26009766 965.16511719 -1367.26009766 965.16511719 -1366.4375 963.875 C-1365.25780764 961.9982167 -1364.07949463 960.1205659 -1362.90234375 958.2421875 C-1361.95657471 956.73543457 -1361.95657471 956.73543457 -1360.99169922 955.19824219 C-1357.81183391 950.09205985 -1354.70008593 944.94491601 -1351.58731079 939.79769897 C-1344.64406386 928.31812203 -1337.62977362 916.88454997 -1330.54736328 905.49023438 C-1327.92314066 901.26696666 -1325.30512262 897.03986062 -1322.6875 892.8125 C-1322.15721191 891.95640137 -1321.62692383 891.10030273 -1321.08056641 890.21826172 C-1317.426549 884.31545076 -1313.78748088 878.40357887 -1310.15332031 872.48852539 C-1302.44881528 859.94969383 -1294.68173245 847.45177188 -1286.86767578 834.98095703 C-1276.86507877 819.01602769 -1266.90306647 803.02684925 -1257 787 C-1250.25666995 776.0867809 -1243.49617989 765.18509684 -1236.6875 754.3125 C-1231.35433699 745.79602971 -1226.06927737 737.25131382 -1220.8125 728.6875 C-1214.77652459 718.85775208 -1208.66898381 709.07777985 -1202.48388672 699.34130859 C-1200.86003846 696.77916565 -1199.24384128 694.21230098 -1197.62890625 691.64453125 C-1197.07428711 690.76337646 -1196.51966797 689.88222168 -1195.94824219 688.97436523 C-1194.87899357 687.27521747 -1193.81059783 685.57553262 -1192.74316406 683.87524414 C-1192.26717773 683.11977295 -1191.79119141 682.36430176 -1191.30078125 681.5859375 C-1190.66910034 680.58119385 -1190.66910034 680.58119385 -1190.0246582 679.55615234 C-1189 678 -1189 678 -1188 677 C-1185.42020733 676.90222217 -1182.86720672 676.87005112 -1180.28697205 676.87974548 C-1179.46940715 676.87889106 -1178.65184225 676.87803663 -1177.80950266 676.87715632 C-1175.04867989 676.87549901 -1172.28791685 676.88102696 -1169.52709961 676.88647461 C-1167.55653383 676.88675645 -1165.58596794 676.8865988 -1163.61540222 676.8860321 C-1158.24785491 676.88574402 -1152.88032973 676.8916425 -1147.51278758 676.89860606 C-1141.91002053 676.9048378 -1136.30725302 676.90544326 -1130.70448303 676.90663147 C-1120.08680442 676.90974532 -1109.46913604 676.91795943 -1098.85146195 676.92798096 C-1086.76702676 676.93914043 -1074.68259109 676.94465213 -1062.59815204 676.94967639 C-1037.73209567 676.960142 -1012.86604841 676.97774247 -988 677 C-989.31977545 680.38496547 -990.72664853 683.36486027 -992.6953125 686.421875 C-993.23784668 687.26919189 -993.78038086 688.11650879 -994.33935547 688.98950195 C-994.92861816 689.90046631 -995.51788086 690.81143066 -996.125 691.75 C-996.74391113 692.71446045 -997.36282227 693.6789209 -998.00048828 694.67260742 C-999.32221299 696.73187369 -1000.64566879 698.79002972 -1001.97070312 700.84716797 C-1004.6197823 704.96292934 -1007.25580916 709.08697128 -1009.89208984 713.2109375 C-1014.6840794 720.70631245 -1019.48390018 728.19665791 -1024.2890625 735.68359375 C-1024.99434082 736.78340576 -1025.69961914 737.88321777 -1026.42626953 739.01635742 C-1027.75697789 741.09137888 -1029.08860321 743.16581275 -1030.42138672 745.23950195 C-1033.74162985 750.41861052 -1037.01457898 755.62308949 -1040.23242188 760.86621094 C-1040.59720642 761.45981415 -1040.96199097 762.05341736 -1041.33782959 762.66500854 C-1042.22559998 764.10977211 -1043.11285463 765.55485256 -1044 767 C-996.81382471 767.30742887 -949.62813026 767.51474937 -902.44097941 767.58805899 C-896.86852922 767.596802 -891.29608073 767.6063727 -885.72363281 767.61645508 C-884.05959136 767.619445 -884.05959136 767.619445 -882.3619329 767.62249533 C-864.40555915 767.65673237 -846.45015854 767.75799933 -828.49422178 767.88409772 C-810.06580439 768.01201991 -791.63818444 768.06777174 -773.20932126 768.05671436 C-761.83945602 768.05216167 -750.47269963 768.10370318 -739.1034936 768.22731743 C-731.30407801 768.30672218 -723.50653256 768.31593613 -715.70685419 768.27035638 C-711.2071713 768.24612217 -706.71309276 768.252443 -702.21411896 768.34227943 C-685.03055264 769.42871264 -685.03055264 769.42871264 -669.40383625 764.11886621 C-665.31717192 759.69622254 -662.88293851 754.82314927 -660.8379302 749.20139468 C-659.74559863 746.33164144 -658.19685823 743.89262076 -656.4765625 741.359375 C-655.52491613 739.82361354 -654.57437376 738.28716737 -653.625 736.75 C-653.09302002 735.88979248 -652.56104004 735.02958496 -652.01293945 734.14331055 C-647.45551361 726.76218266 -642.94512836 719.3527519 -638.44189453 711.93847656 C-633.98771606 704.60925034 -629.49997986 697.30118084 -625 690 C-618.20335624 678.97003677 -611.45316477 667.91262968 -604.7265625 656.83984375 C-602.96588086 653.94388096 -601.20214224 651.04980093 -599.4375 648.15625 C-591.90474085 635.80227765 -584.43323377 623.41426671 -577 611 C-572.05 602.75 -567.1 594.5 -562 586 C-625.69 586 -689.38 586 -755 586 C-753.25502681 581.63756703 -751.25474195 578.18919982 -748.625 574.375 C-744.77020084 568.68779905 -741.02735689 562.94424947 -737.375 557.125 C-732.66126699 549.62230829 -727.90647344 542.1472165 -723.125 534.6875 C-717.96393826 526.63459648 -712.81637563 518.57344029 -707.6875 510.5 C-703.26128468 503.53536498 -698.80768404 496.58986488 -694.31420898 489.66845703 C-690.26323541 483.42281025 -686.25670511 477.14910987 -682.25 470.875 C-676.92112064 462.53183065 -671.54719148 454.22031014 -666.125 445.9375 C-661.60405891 439.02793982 -657.13826203 432.09214086 -652.7824707 425.07739258 C-649.15734261 419.23986463 -645.49249675 413.42809045 -641.8125 407.625 C-641.24200928 406.72128662 -640.67151855 405.81757324 -640.08374023 404.88647461 C-639.52630127 404.00870361 -638.9688623 403.13093262 -638.39453125 402.2265625 C-637.90831299 401.45908691 -637.42209473 400.69161133 -636.92114258 399.90087891 C-636.28716553 398.94358887 -635.65318848 397.98629883 -635 397 C-634.64327776 396.19781036 -634.28655552 395.39562073 -633.91902351 394.56912231 C-632.24706976 391.38071594 -630.7612838 389.33470998 -628 387 C-621.97047672 385.49810623 -616.03519458 385.73406353 -609.85571289 385.86474609 C-607.99263665 385.86756847 -606.12954928 385.86598029 -604.26647949 385.86032104 C-599.21855573 385.85745504 -594.17301453 385.91618678 -589.12564397 385.98606062 C-583.84734935 386.04863181 -578.56899828 386.05445236 -573.29039001 386.0663147 C-563.29925266 386.09737946 -553.30921127 386.17941709 -543.31855625 386.27980959 C-531.94270747 386.39163661 -520.56680596 386.44657912 -509.19054425 386.49676394 C-485.79308886 386.60125209 -462.39660587 386.77711075 -439 387 C-438.70826904 386.24436768 -438.41653809 385.48873535 -438.1159668 384.71020508 C-436.66177139 381.17858766 -434.76050278 377.96198506 -432.8125 374.6875 C-432.1642627 373.59139404 -432.1642627 373.59139404 -431.50292969 372.47314453 C-427.05625565 365.00588406 -422.43484094 357.64862829 -417.81176758 350.28979492 C-413.48303658 343.39424607 -409.21814902 336.46368272 -405 329.5 C-400.29193504 321.73046797 -395.51877432 314.00599986 -390.6875 306.3125 C-385.21131452 297.58947386 -379.82955737 288.81299816 -374.5 280 C-367.95394909 269.1769389 -361.30198191 258.42460714 -354.578125 247.7109375 C-351.02697466 242.05189543 -347.5104568 236.37184721 -344 230.6875 C-333.96166667 214.4425 -333.96166667 214.4425 -329 207 C-519.41 207 -709.82 207 -906 207 C-904.63329151 203.58322879 -903.45324209 200.88029788 -901.6015625 197.8046875 C-901.12879883 197.01690918 -900.65603516 196.22913086 -900.16894531 195.41748047 C-899.65944336 194.57846191 -899.14994141 193.73944336 -898.625 192.875 C-897.8220752 191.5449292 -897.8220752 191.5449292 -897.00292969 190.18798828 C-893.00798323 183.59644364 -888.91696992 177.06943648 -884.78149414 170.56542969 C-880.4794643 163.78999185 -876.26297144 156.9637882 -872.0625 150.125 C-871.38034424 149.01447266 -870.69818848 147.90394531 -869.99536133 146.75976562 C-868.6390862 144.55147771 -867.28288388 142.34314508 -865.92675781 140.13476562 C-857.87351019 127.03242155 -849.74402628 113.97801929 -841.58569336 100.94091797 C-837.00357043 93.61541469 -832.4492617 86.27316508 -827.9074707 78.92260742 C-823.85675591 72.37166417 -819.7757862 65.84004705 -815.6875 59.3125 C-810.35427677 50.79606747 -805.06929949 42.25129969 -799.8125 33.6875 C-794.93547768 25.74559804 -790.03460537 17.82029086 -785.0625 9.9375 C-784.56016846 9.13981201 -784.05783691 8.34212402 -783.5402832 7.52026367 C-780.12575313 2.12575313 -780.12575313 2.12575313 -779 1 C-776.77634738 0.89017074 -774.54911928 0.85303094 -772.32278442 0.84178162 C-771.60792118 0.83684346 -770.89305794 0.83190531 -770.15653217 0.82681751 C-767.71259287 0.81126681 -765.26868093 0.80300851 -762.82470703 0.79467773 C-761.04816986 0.78506763 -759.27163482 0.77505863 -757.49510193 0.76468754 C-752.49686936 0.73703901 -747.49862734 0.71619995 -742.50035715 0.69668961 C-739.20860362 0.68339501 -735.91686194 0.66841228 -732.62511826 0.65287781 C-716.84879172 0.57843417 -701.07243029 0.51716889 -685.29603273 0.4601509 C-680.51845789 0.44279964 -675.7408872 0.42452616 -670.96331787 0.40571976 C-586.59254557 0.07388447 -502.22167647 -0.03135856 0 0 Z " fill="#E71B23" transform="translate(1412,22)"/>
<path d="M0 0 C2.99089637 0.0004389 5.98179275 0.00086543 8.97268913 0.00129237 C87.06100383 0.01246097 165.14931419 0.03286134 243.23762406 0.06282836 C241.23762406 2.06282836 241.23762406 2.06282836 238.68434853 2.31007469 C237.04753519 2.30812242 237.04753519 2.30812242 235.37765492 2.30613071 C234.12150051 2.30949611 232.8653461 2.3128615 231.57112641 2.31632888 C230.16418687 2.30993099 228.75724815 2.30335085 227.35031021 2.29660827 C225.86579371 2.29676419 224.38127708 2.29780134 222.89676172 2.29964852 C218.80246256 2.30219056 214.70827279 2.29221571 210.61399365 2.28030056 C206.20425383 2.26964246 201.79451512 2.27050088 197.38476456 2.27002746 C189.73893562 2.2676613 182.09314296 2.25806666 174.4473275 2.24372321 C163.38939288 2.22307657 152.33147388 2.21436758 141.27352256 2.20880186 C123.32998673 2.19953779 105.3864691 2.18207062 87.44294632 2.15877563 C85.83089125 2.15668566 85.83089125 2.15668566 84.1862694 2.15455347 C83.11020802 2.15315793 82.03414664 2.1517624 80.92547733 2.15032458 C65.67121105 2.13055941 50.41694415 2.11272968 35.16267288 2.09725219 C34.08957613 2.09616134 33.01647938 2.09507049 31.91086455 2.09394658 C14.03738291 2.07594187 -3.83610058 2.06197263 -21.70958727 2.05008054 C-32.7436318 2.04247707 -43.77765824 2.03071159 -54.81169224 2.01361888 C-62.3684674 2.00207482 -69.9252411 1.99388159 -77.48202305 1.98835338 C-81.84686686 1.98501261 -86.21169243 1.97995634 -90.57652771 1.97053939 C-94.56797165 1.9619432 -98.55939286 1.95788368 -102.5508458 1.95750403 C-103.99901512 1.9565339 -105.44718445 1.95384116 -106.89534698 1.94930274 C-108.85574474 1.94339202 -110.81615935 1.94418719 -112.77656566 1.94536716 C-113.86793691 1.94390329 -114.95930815 1.94243943 -116.08375125 1.9409312 C-118.86491126 1.94546603 -118.86491126 1.94546603 -121.76237594 3.06282836 C-123.2013135 3.15369765 -124.64411957 3.18910527 -126.08592331 3.189812 C-127.42687765 3.19404552 -127.42687765 3.19404552 -128.79492199 3.19836456 C-129.7835275 3.19633781 -130.772133 3.19431106 -131.79069626 3.19222289 C-133.37515218 3.19481738 -133.37515218 3.19481738 -134.99161731 3.19746429 C-138.60792678 3.20189736 -142.22419062 3.19882339 -145.84050094 3.19564086 C-147.8191357 3.19640099 -149.7977705 3.19716928 -151.77640503 3.19838971 C-159.14142146 3.20287847 -166.50641908 3.19966653 -173.87143343 3.19339341 C-179.42737666 3.18871786 -184.98331693 3.18633665 -190.53926193 3.18514282 C-271.76618412 3.16448433 -352.99280187 2.8053398 -535.76237594 2.06282836 C-535.76237594 1.73282836 -535.76237594 1.40282836 -535.76237594 1.06282836 C-503.17714587 0.87325531 -470.59177304 0.71511761 -438.00630867 0.57187271 C-435.96047942 0.562875 -433.91465034 0.55383917 -431.86882126 0.54480249 C-347.55743228 0.17332659 -263.24605337 0.02936762 0 0 Z " fill="#EB3A42" transform="translate(1168.7623759433627,21.937171638011932)"/>
<path d="M0 0 C0.66 0.99 1.32 1.98 2 3 C1.67 3.66 1.34 4.32 1 5 C284.14 5.495 284.14 5.495 573 6 C573 6.33 573 6.66 573 7 C382.92 7 192.84 7 -3 7 C-1 2 -1 2 0 0 Z " fill="#E9272D" transform="translate(510,220)"/>
<path d="M0 0 C190.41 0 380.82 0 577 0 C576.34 1.32 575.68 2.64 575 4 C574.34 3.34 573.68 2.68 573 2 C569.90585811 1.79900132 566.90079246 1.72592629 563.80515099 1.73828697 C562.83540518 1.73429091 561.86565937 1.73029485 560.86652732 1.72617769 C557.57969968 1.7151088 554.29303776 1.71841794 551.00619507 1.7215271 C548.64095639 1.7165296 546.27571943 1.71065543 543.91048491 1.70397437 C538.74881032 1.69141917 533.58716615 1.6851145 528.42547798 1.68421364 C520.75017577 1.68284069 513.0749225 1.67007585 505.39963664 1.6549259 C492.49018826 1.62976961 479.58074398 1.61392791 466.67127609 1.60334396 C453.88416025 1.59283007 441.09706004 1.57820736 428.3099556 1.55806351 C427.51571637 1.55681464 426.72147715 1.55556577 425.90317007 1.55427906 C421.86984215 1.54791555 417.83651436 1.54147831 413.80318661 1.53501268 C385.21450235 1.48931627 356.62581302 1.4528831 328.03710938 1.421875 C300.2587815 1.39172471 272.48046394 1.35739256 244.70214844 1.31738281 C243.84631745 1.31615181 242.99048647 1.31492081 242.10872121 1.3136525 C233.51433218 1.30128594 224.91994328 1.28883419 216.32555446 1.27632002 C198.81686 1.25082778 181.30816475 1.22590425 163.79946899 1.20132446 C162.59186313 1.1996281 162.59186313 1.1996281 161.3598612 1.19789747 C107.57325276 1.12240686 53.78662743 1.06021594 0 1 C0 0.67 0 0.34 0 0 Z " fill="#FDEDEC" transform="translate(506,229)"/>
<path d="M0 0 C0.66 0 1.32 0 2 0 C0.68572205 3.94283384 -1.25401603 6.86826566 -3.703125 10.16015625 C-4.99190087 11.98850997 -6.06201996 13.84598692 -7.125 15.8125 C-9 19 -9 19 -12 21 C-10.31821351 16.15530823 -7.70402747 12.01008105 -5 7.6875 C-4.54882812 6.94693359 -4.09765625 6.20636719 -3.6328125 5.44335938 C-3.19710937 4.74404297 -2.76140625 4.04472656 -2.3125 3.32421875 C-1.91675781 2.68572998 -1.52101563 2.04724121 -1.11328125 1.3894043 C-0.74589844 0.93090088 -0.37851562 0.47239746 0 0 Z " fill="#FAD9DA" transform="translate(1024,644)"/>
<path d="M0 0 C5.61 0 11.22 0 17 0 C14.75 5.625 14.75 5.625 12 8 C12.57584432 5.61435923 13.22227595 3.33317216 14 1 C9.38 1 4.76 1 0 1 C0 0.67 0 0.34 0 0 Z " fill="#E4242C" transform="translate(1393,24)"/>
<path d="M0 0 C7.59 0 15.18 0 23 0 C22.67 0.99 22.34 1.98 22 3 C21.34 2.67 20.68 2.34 20 2 C18.4804236 1.84876169 16.95527498 1.75118307 15.4296875 1.68359375 C14.53378906 1.64169922 13.63789062 1.59980469 12.71484375 1.55664062 C11.77769531 1.51732422 10.84054687 1.47800781 9.875 1.4375 C8.93011719 1.39431641 7.98523438 1.35113281 7.01171875 1.30664062 C4.67462908 1.20040928 2.3374317 1.09836824 0 1 C0 0.67 0 0.34 0 0 Z " fill="#FCEFF0" transform="translate(826,610)"/>
<path d="M0 0 C5.94 0 11.88 0 18 0 C17.34 1.32 16.68 2.64 16 4 C15.34 3.34 14.68 2.68 14 2 C11.63490639 1.69940057 9.25558119 1.50484988 6.875 1.375 C4.95300781 1.26285156 4.95300781 1.26285156 2.9921875 1.1484375 C1.51105469 1.07496094 1.51105469 1.07496094 0 1 C0 0.67 0 0.34 0 0 Z " fill="#FBE4E2" transform="translate(1065,229)"/>
<path d="M0 0 C0.66 0.99 1.32 1.98 2 3 C0.02 5.97 0.02 5.97 -2 9 C-2.66 8.67 -3.32 8.34 -4 8 C-2.87548273 5.0280615 -1.77706209 2.66559313 0 0 Z " fill="#EA2A30" transform="translate(981,709)"/>
<path d="M0 0 C0.66 0.99 1.32 1.98 2 3 C0.02 5.97 0.02 5.97 -2 9 C-2.66 8.34 -3.32 7.68 -4 7 C-2.68 4.69 -1.36 2.38 0 0 Z " fill="#E82D32" transform="translate(520,204)"/>
<path d="M0 0 C0.66 0.66 1.32 1.32 2 2 C0.02 4.64 -1.96 7.28 -4 10 C-4.33 9.34 -4.66 8.68 -5 8 C-4.00390625 6.0546875 -4.00390625 6.0546875 -2.5625 3.875 C-2.08941406 3.15054688 -1.61632812 2.42609375 -1.12890625 1.6796875 C-0.75636719 1.12539063 -0.38382813 0.57109375 0 0 Z " fill="#FBDFE1" transform="translate(955,755)"/>
<path d="M0 0 C2 3 2 3 1.625 5.1875 C1.41875 5.785625 1.2125 6.38375 1 7 C-0.32 7 -1.64 7 -3 7 C-1.125 2.25 -1.125 2.25 0 0 Z " fill="#EB323A" transform="translate(510,220)"/>
</svg>
